# xmcd CD database file
#
# Track frame offsets:
#	150
#	24732
#	54634
#	94278
#	121135
#
# Disc length: 1859 seconds
#
# Revision: 1
# Processed by: cddbd v1.5.2PL0 Copyright (c) Steve Scherf et al.
# Submitted via: CDex 1.51
#
DISCID=3d074105
DTITLE=Dixie Chicks - The Unauthorised CD Biography
DYEAR=1900
DGENRE=Country
TTITLE0=Growing Up
TTITLE1=Learning To Fly
TTITLE2=Wide Open Spaces
TTITLE3=In Flight
TTITLE4=Ruling The Roost
EXTD=
EXTT0=
EXTT1=
EXTT2=
EXTT3=
EXTT4=
PLAYORDER=
